<?xml version="1.0" encoding="UTF-8" standalone="no"?>
<!DOCTYPE svg PUBLIC "-//W3C//DTD SVG 1.1//EN" "http://www.w3.org/Graphics/SVG/1.1/DTD/svg11.dtd">
<svg version="1.1" xmlns="http://www.w3.org/2000/svg" xmlns:xlink="http://www.w3.org/1999/xlink" preserveAspectRatio="xMidYMid meet" viewBox="0 0 640 640" width="640" height="640"><defs><path d="M526.73 98.17C527.13 98.17 527.47 98.5 527.47 98.91C527.47 99.37 527.47 100.01 527.47 100.47C527.47 100.88 527.13 101.21 526.73 101.21C523.87 101.21 516.06 101.21 513.21 101.21C512.8 101.21 512.47 100.88 512.47 100.47C512.47 100.01 512.47 99.37 512.47 98.91C512.47 98.5 512.8 98.17 513.21 98.17C516.06 98.17 523.87 98.17 526.73 98.17Z" id="bDO3jDbW7"></path><clipPath id="clipb26Pw2XFL1"><use xlink:href="#bDO3jDbW7" opacity="1"></use></clipPath><path d="M526.73 105.23C527.13 105.23 527.47 105.57 527.47 105.97C527.47 106.43 527.47 107.07 527.47 107.53C527.47 107.94 527.13 108.27 526.73 108.27C523.87 108.27 516.06 108.27 513.21 108.27C512.8 108.27 512.47 107.94 512.47 107.53C512.47 107.07 512.47 106.43 512.47 105.97C512.47 105.57 512.8 105.23 513.21 105.23C516.06 105.23 523.87 105.23 526.73 105.23Z" id="a13ctdmbJW"></path><clipPath id="clipb38qYC7wj5"><use xlink:href="#a13ctdmbJW" opacity="1"></use></clipPath><path d="M526.73 112.4C527.13 112.4 527.47 112.73 527.47 113.14C527.47 113.6 527.47 114.24 527.47 114.7C527.47 115.11 527.13 115.44 526.73 115.44C523.87 115.44 516.06 115.44 513.21 115.44C512.8 115.44 512.47 115.11 512.47 114.7C512.47 114.24 512.47 113.6 512.47 113.14C512.47 112.73 512.8 112.4 513.21 112.4C516.06 112.4 523.87 112.4 526.73 112.4Z" id="aDPpJ2pcB"></path><clipPath id="cliph6Wm8dafr"><use xlink:href="#aDPpJ2pcB" opacity="1"></use></clipPath></defs><g><g><g><use xlink:href="#bDO3jDbW7" opacity="1" fill="#000000" fill-opacity="1"></use><g clip-path="url(#clipb26Pw2XFL1)"><use xlink:href="#bDO3jDbW7" opacity="1" fill-opacity="0" stroke="#000000" stroke-width="2" stroke-opacity="1"></use></g></g><g><use xlink:href="#a13ctdmbJW" opacity="1" fill="#000000" fill-opacity="1"></use><g clip-path="url(#clipb38qYC7wj5)"><use xlink:href="#a13ctdmbJW" opacity="1" fill-opacity="0" stroke="#000000" stroke-width="2" stroke-opacity="1"></use></g></g><g><use xlink:href="#aDPpJ2pcB" opacity="1" fill="#000000" fill-opacity="1"></use><g clip-path="url(#cliph6Wm8dafr)"><use xlink:href="#aDPpJ2pcB" opacity="1" fill-opacity="0" stroke="#000000" stroke-width="2" stroke-opacity="1"></use></g></g></g></g></svg>